<svg xmlns="http://www.w3.org/2000/svg" viewBox="0 0 166 166"><rect width="166" height="166" rx="19.1" ry="19.1" style="fill:#fff"/><path d="M48.9 124.6h-.7L33 129c-1.3 3.2-2 6.1-2 8.9 0 5.1 2 9.4 6 13h15c-3.5-3.8-5.2-8.6-5.2-14.4s.7-7.4 2.1-11.9m71.6-93.9c3.7 0 7.7 1.1 12.2 3.2l2.3-18.8c-7.3 0-12.9 1.7-16.7 5.1-3.1 2.8-5.7 6.2-7.8 10.3-2.4-1.8-5.2-3.4-8.3-4.7-6.4-2.7-13.7-4.1-21.7-4.1S65 23.1 58.3 25.9c-6.6 2.8-11.9 6.7-15.7 11.8s-5.8 10.9-5.8 17.6 1.8 12.5 5.5 17.6c3.5 4.8 8.2 8.5 14.1 11.2l-2.6 1.6c-3.7 2.1-6.6 4.2-8.8 6.3s-3.8 4.1-4.9 6.1-1.6 4.3-1.6 6.7c0 4.7 1.7 8.7 5.1 11.8s8.7 4.9 16 5.2l31 1.8c9.1.5 15.5 1.9 19.3 4.2s5.7 5.6 5.7 9.8-1.7 8-5.2 11.3c-.8.8-1.7 1.5-2.7 2.2h8.6q4.05-2.7 7.2-6c5.3-5.5 7.9-11.9 7.9-19.2s-2.8-13.5-8.5-17.6c-5.7-4-14.1-6.3-25.4-6.9l-34.2-1.9c-3.9-.1-6.6-.8-8.2-2-1.5-1.2-2.3-2.6-2.3-4s.4-2.5 1.2-3.6 2.2-2.4 4.2-3.8c.4-.2.8-.5 1.1-.7 5.9 2.2 12.5 3.3 20 3.3s15.5-1.4 22.1-4.3c6.6-2.8 11.7-6.8 15.5-11.9s5.7-10.9 5.7-17.6-1.8-12.6-5.4-17.6c-1.3-1.8-2.8-3.4-4.5-4.9.5-.3.9-.5 1.4-.7 1.7-.6 3.7-1 6.2-1Zm-25 41c-1.2 4.4-3 7.9-5.6 10.3-2.5 2.4-5.8 3.6-9.7 3.6-5.8 0-10.2-2.7-13.1-8.2-3-5.4-4.4-13-4.4-22.7s.6-12 1.7-16.5 3-7.9 5.6-10.4q3.9-3.6 9.9-3.6c6 0 7 1.3 9.6 3.8s4.5 6.1 5.9 10.7 2 10.1 2 16.5-.6 12-1.8 16.4Z" style="fill:#1b1c20"/></svg>
